<mxfile host="Electron" modified="2023-11-01T19:36:02.825Z" agent="Mozilla/5.0 (Windows NT 10.0; Win64; x64) AppleWebKit/537.36 (KHTML, like Gecko) draw.io/22.0.3 Chrome/114.0.5735.289 Electron/25.8.4 Safari/537.36" etag="felFQjPBdKbamsPbbQ26" version="22.0.3" type="device">
  <diagram name="Page-1" id="6pLh6FNHN2mtUAquhcBg">
    <mxGraphModel dx="1389" dy="1984" grid="0" gridSize="10" guides="1" tooltips="1" connect="1" arrows="1" fold="1" page="1" pageScale="1" pageWidth="850" pageHeight="1100" math="0" shadow="0">
      <root>
        <mxCell id="0" />
        <mxCell id="1" parent="0" />
        <mxCell id="6Tj7AII4krlcqi7IRTv7-17" value="" style="rounded=0;whiteSpace=wrap;html=1;" vertex="1" parent="1">
          <mxGeometry x="296" y="63" width="172" height="174" as="geometry" />
        </mxCell>
        <mxCell id="6Tj7AII4krlcqi7IRTv7-3" style="edgeStyle=orthogonalEdgeStyle;rounded=0;orthogonalLoop=1;jettySize=auto;html=1;" edge="1" parent="1" source="6Tj7AII4krlcqi7IRTv7-1" target="6Tj7AII4krlcqi7IRTv7-2">
          <mxGeometry relative="1" as="geometry">
            <mxPoint x="242" y="148" as="targetPoint" />
          </mxGeometry>
        </mxCell>
        <mxCell id="6Tj7AII4krlcqi7IRTv7-1" value="" style="sketch=0;outlineConnect=0;fontColor=#232F3E;gradientColor=none;fillColor=#ED7100;strokeColor=none;dashed=0;verticalLabelPosition=bottom;verticalAlign=top;align=center;html=1;fontSize=12;fontStyle=0;aspect=fixed;pointerEvents=1;shape=mxgraph.aws4.container_registry_image;" vertex="1" parent="1">
          <mxGeometry x="48" y="120" width="60" height="60" as="geometry" />
        </mxCell>
        <mxCell id="6Tj7AII4krlcqi7IRTv7-18" style="edgeStyle=orthogonalEdgeStyle;rounded=0;orthogonalLoop=1;jettySize=auto;html=1;entryX=0;entryY=0.5;entryDx=0;entryDy=0;" edge="1" parent="1" source="6Tj7AII4krlcqi7IRTv7-2" target="6Tj7AII4krlcqi7IRTv7-17">
          <mxGeometry relative="1" as="geometry" />
        </mxCell>
        <mxCell id="6Tj7AII4krlcqi7IRTv7-2" value="Amazon S3" style="sketch=0;outlineConnect=0;fontColor=#232F3E;gradientColor=none;strokeColor=#ffffff;fillColor=#232F3E;dashed=0;verticalLabelPosition=middle;verticalAlign=bottom;align=center;html=1;whiteSpace=wrap;fontSize=10;fontStyle=1;spacing=3;shape=mxgraph.aws4.productIcon;prIcon=mxgraph.aws4.s3;aspect=fixed;" vertex="1" parent="1">
          <mxGeometry x="172.5" y="103" width="74" height="92.5" as="geometry" />
        </mxCell>
        <mxCell id="6Tj7AII4krlcqi7IRTv7-8" value="https://nasa-gibs.github.io/gibs-api-docs/python-usage/" style="rounded=0;whiteSpace=wrap;html=1;" vertex="1" parent="1">
          <mxGeometry x="34" y="-129" width="351" height="54" as="geometry" />
        </mxCell>
        <mxCell id="6Tj7AII4krlcqi7IRTv7-10" value="Crop Health Assessment&lt;br&gt;Yield Prediction - &lt;b&gt;(Type of crop)&lt;/b&gt;&lt;br&gt;Water Resource Monitoring" style="rounded=0;whiteSpace=wrap;html=1;" vertex="1" parent="1">
          <mxGeometry x="33" y="-202" width="349" height="60" as="geometry" />
        </mxCell>
        <mxCell id="6Tj7AII4krlcqi7IRTv7-12" value="latitude and longitude" style="rounded=0;whiteSpace=wrap;html=1;" vertex="1" parent="1">
          <mxGeometry x="309" y="78.5" width="145" height="33" as="geometry" />
        </mxCell>
        <mxCell id="6Tj7AII4krlcqi7IRTv7-13" value="detect crop" style="rounded=0;whiteSpace=wrap;html=1;" vertex="1" parent="1">
          <mxGeometry x="309" y="116.5" width="145" height="33" as="geometry" />
        </mxCell>
        <mxCell id="6Tj7AII4krlcqi7IRTv7-14" value="detect date" style="rounded=0;whiteSpace=wrap;html=1;" vertex="1" parent="1">
          <mxGeometry x="309.5" y="197" width="145" height="33" as="geometry" />
        </mxCell>
        <mxCell id="6Tj7AII4krlcqi7IRTv7-26" style="edgeStyle=orthogonalEdgeStyle;rounded=0;orthogonalLoop=1;jettySize=auto;html=1;entryX=0.021;entryY=0.457;entryDx=0;entryDy=0;entryPerimeter=0;" edge="1" parent="1" source="6Tj7AII4krlcqi7IRTv7-15" target="6Tj7AII4krlcqi7IRTv7-37">
          <mxGeometry relative="1" as="geometry">
            <mxPoint x="529" y="427" as="targetPoint" />
          </mxGeometry>
        </mxCell>
        <mxCell id="6Tj7AII4krlcqi7IRTv7-15" value="Commodity prices by date" style="rounded=0;whiteSpace=wrap;html=1;align=left;" vertex="1" parent="1">
          <mxGeometry x="54" y="405" width="173" height="43" as="geometry" />
        </mxCell>
        <mxCell id="6Tj7AII4krlcqi7IRTv7-16" value="estimated earn (By country)" style="rounded=0;whiteSpace=wrap;html=1;" vertex="1" parent="1">
          <mxGeometry x="781" y="231.5" width="120" height="33" as="geometry" />
        </mxCell>
        <mxCell id="6Tj7AII4krlcqi7IRTv7-19" value="Country polygons" style="rounded=0;whiteSpace=wrap;html=1;align=left;" vertex="1" parent="1">
          <mxGeometry x="55" y="282" width="174" height="40" as="geometry" />
        </mxCell>
        <mxCell id="6Tj7AII4krlcqi7IRTv7-20" value="harvest estimate" style="rounded=0;whiteSpace=wrap;html=1;" vertex="1" parent="1">
          <mxGeometry x="309.5" y="158" width="145" height="33" as="geometry" />
        </mxCell>
        <mxCell id="6Tj7AII4krlcqi7IRTv7-21" style="edgeStyle=orthogonalEdgeStyle;rounded=0;orthogonalLoop=1;jettySize=auto;html=1;" edge="1" parent="1" source="6Tj7AII4krlcqi7IRTv7-17" target="6Tj7AII4krlcqi7IRTv7-32">
          <mxGeometry relative="1" as="geometry">
            <mxPoint x="538" y="150" as="targetPoint" />
          </mxGeometry>
        </mxCell>
        <mxCell id="6Tj7AII4krlcqi7IRTv7-25" style="edgeStyle=orthogonalEdgeStyle;rounded=0;orthogonalLoop=1;jettySize=auto;html=1;" edge="1" parent="1" source="6Tj7AII4krlcqi7IRTv7-19" target="6Tj7AII4krlcqi7IRTv7-34">
          <mxGeometry relative="1" as="geometry">
            <mxPoint x="534" y="287.5" as="targetPoint" />
          </mxGeometry>
        </mxCell>
        <mxCell id="6Tj7AII4krlcqi7IRTv7-31" style="edgeStyle=orthogonalEdgeStyle;rounded=0;orthogonalLoop=1;jettySize=auto;html=1;entryX=0;entryY=0.5;entryDx=0;entryDy=0;" edge="1" parent="1" source="6Tj7AII4krlcqi7IRTv7-27" target="6Tj7AII4krlcqi7IRTv7-16">
          <mxGeometry relative="1" as="geometry" />
        </mxCell>
        <mxCell id="6Tj7AII4krlcqi7IRTv7-39" style="edgeStyle=orthogonalEdgeStyle;rounded=0;orthogonalLoop=1;jettySize=auto;html=1;entryX=0;entryY=0.5;entryDx=0;entryDy=0;" edge="1" parent="1" source="6Tj7AII4krlcqi7IRTv7-27" target="6Tj7AII4krlcqi7IRTv7-38">
          <mxGeometry relative="1" as="geometry" />
        </mxCell>
        <mxCell id="6Tj7AII4krlcqi7IRTv7-27" value="" style="verticalLabelPosition=bottom;html=1;verticalAlign=top;align=center;strokeColor=#b85450;fillColor=#f8cecc;shape=mxgraph.azure.script_file;pointerEvents=1;" vertex="1" parent="1">
          <mxGeometry x="688" y="223" width="47.5" height="50" as="geometry" />
        </mxCell>
        <mxCell id="6Tj7AII4krlcqi7IRTv7-28" style="edgeStyle=orthogonalEdgeStyle;rounded=0;orthogonalLoop=1;jettySize=auto;html=1;entryX=0;entryY=0.5;entryDx=0;entryDy=0;entryPerimeter=0;exitX=0.953;exitY=0.531;exitDx=0;exitDy=0;exitPerimeter=0;" edge="1" parent="1" source="6Tj7AII4krlcqi7IRTv7-32" target="6Tj7AII4krlcqi7IRTv7-27">
          <mxGeometry relative="1" as="geometry">
            <mxPoint x="591" y="151" as="sourcePoint" />
          </mxGeometry>
        </mxCell>
        <mxCell id="6Tj7AII4krlcqi7IRTv7-29" style="edgeStyle=orthogonalEdgeStyle;rounded=0;orthogonalLoop=1;jettySize=auto;html=1;entryX=0;entryY=0.5;entryDx=0;entryDy=0;entryPerimeter=0;" edge="1" parent="1" source="6Tj7AII4krlcqi7IRTv7-34" target="6Tj7AII4krlcqi7IRTv7-27">
          <mxGeometry relative="1" as="geometry">
            <mxPoint x="594" y="287.5" as="sourcePoint" />
          </mxGeometry>
        </mxCell>
        <mxCell id="6Tj7AII4krlcqi7IRTv7-30" style="edgeStyle=orthogonalEdgeStyle;rounded=0;orthogonalLoop=1;jettySize=auto;html=1;entryX=0;entryY=0.5;entryDx=0;entryDy=0;entryPerimeter=0;" edge="1" parent="1" source="6Tj7AII4krlcqi7IRTv7-37" target="6Tj7AII4krlcqi7IRTv7-27">
          <mxGeometry relative="1" as="geometry">
            <mxPoint x="589" y="427" as="sourcePoint" />
            <Array as="points">
              <mxPoint x="637" y="427" />
              <mxPoint x="637" y="248" />
            </Array>
          </mxGeometry>
        </mxCell>
        <mxCell id="6Tj7AII4krlcqi7IRTv7-32" value="" style="image;sketch=0;aspect=fixed;html=1;points=[];align=center;fontSize=12;image=img/lib/mscae/Azure_Database_for_PostgreSQL_servers.svg;" vertex="1" parent="1">
          <mxGeometry x="538" y="118.25" width="48.26" height="63.5" as="geometry" />
        </mxCell>
        <mxCell id="6Tj7AII4krlcqi7IRTv7-34" value="" style="dashed=0;outlineConnect=0;html=1;align=center;labelPosition=center;verticalLabelPosition=bottom;verticalAlign=top;shape=mxgraph.weblogos.json" vertex="1" parent="1">
          <mxGeometry x="516.26" y="264.1" width="70" height="75.8" as="geometry" />
        </mxCell>
        <mxCell id="6Tj7AII4krlcqi7IRTv7-35" value="Orquestar -&amp;gt; Airflow&lt;br&gt;Docker -&amp;gt; SÃ­" style="rounded=0;whiteSpace=wrap;html=1;" vertex="1" parent="1">
          <mxGeometry x="33" y="-62" width="352" height="60" as="geometry" />
        </mxCell>
        <mxCell id="6Tj7AII4krlcqi7IRTv7-36" value="TODOS:&lt;br&gt;&lt;ul&gt;&lt;li&gt;&amp;nbsp;dbt (????)&lt;/li&gt;&lt;li&gt;AWS -&amp;gt; LAMBDA&lt;/li&gt;&lt;/ul&gt;" style="rounded=0;whiteSpace=wrap;html=1;align=left;horizontal=1;verticalAlign=top;" vertex="1" parent="1">
          <mxGeometry x="397" y="-202" width="315" height="197" as="geometry" />
        </mxCell>
        <mxCell id="6Tj7AII4krlcqi7IRTv7-37" value="" style="image;sketch=0;aspect=fixed;html=1;points=[];align=center;fontSize=12;image=img/lib/mscae/Azure_Database_for_PostgreSQL_servers.svg;" vertex="1" parent="1">
          <mxGeometry x="535" y="398" width="48.26" height="63.5" as="geometry" />
        </mxCell>
        <mxCell id="6Tj7AII4krlcqi7IRTv7-38" value="estimated earn (By polygon)" style="rounded=0;whiteSpace=wrap;html=1;" vertex="1" parent="1">
          <mxGeometry x="783" y="279" width="120" height="33" as="geometry" />
        </mxCell>
        <mxCell id="6Tj7AII4krlcqi7IRTv7-40" value="" style="rounded=0;whiteSpace=wrap;html=1;fillColor=#f8cecc;strokeColor=#b85450;" vertex="1" parent="1">
          <mxGeometry x="294" y="269" width="176" height="176" as="geometry" />
        </mxCell>
        <mxCell id="6Tj7AII4krlcqi7IRTv7-41" value="" style="shape=image;verticalLabelPosition=bottom;labelBackgroundColor=default;verticalAlign=top;aspect=fixed;imageAspect=0;image=data:image/webp,UklGRnYFAABXRUJQVlA4TGoFAAAvv8AvEKegoG0jJ8cf7b7fT0NpJEnRbP4Z3h2fA4XEsQrbNlKy/7CHz6i2bSNH/eX7/y7tP+UHwPf/8w76NKwbvhwNRVPQMsYe9d5eT3///x9if5MiFmYDE+gPBV84BNk2m7/2foaImACmluCVvmXbrVvbti306xi48Abg/z9XoohCP/WHiP5PgOO2jSQJrjuAyj/Z3Z3pHXv+Ef2fAPpPW2YREeZfi9X6XMsjH4avNbsp/zqsbazIT2ONpvyjaJ957Oz6a2ibkYfHbPozSPcs6l1+ALaVpZfx3WwmwGnXYvME6cY34uYJ1Bvfhlsk2Gh8E+6RgKPzNcwTtNsdZCbwKfi4J/jO4MwTvhsynnnFybDU85KuoFreMxoinnnVyXDU87KuYCwvbFB6XrkDGVn93yI5YMws/1eVnBh4Zvl/6+RkALyy/BhRLi7HnvUTQZTOxXhl/QGSKRfXmgkw2HKWGgmwARRXjkIjEbqAHGVaIiwAaLZsRSwh+sfQpZWQgFAQEVKAPRGOfVmBzueNhJj4NAU5jrOEOPjqEtIOk8AQUkKO4pUQG99DQzqfNBKj/0gROQ7SxNhQk3rOAuG/SsY6piXGgp5sh0iAsAutI+SMmRgTF0dHjiM0MQ40pZ7gIOLSKvUDWmJsXDUpad85iLjkWvwzS4wNXWlfOQi/FmL8I0uMhespJu2bBcK0rU8sMSZulpq0LxaGgbr1gSbGuNVyUvZ1DAN9fZ9jiHujx7dpQmzcX8G6a2DwVxibOCAU7rui4D2WEO0d0vZMCImDIWlu4UQ4OJmSkncYhHwP29ERDI6Wpr7DEcSL+AZJgI2zrSnlnSHwV7F3A0Dh8Iga7xyAnVrR/kqyfuJdUt5ovbFTLkvftHqJt2lvRrnB8ZA13sxycS5lzTderXHe/LHzNH/BWd3/8Nzcx/MzrVbgt3mePrNqJqD2+fasFSvw2xK2Z6PWmIBiGEAS/L6vNhDYfLNUCIilnM9WpYbA4VgwXECuAC9U4Lch8WdRyAXUksazrFvgt6V9FmXGBBRNPPMyCX5fWocwENgiVpUQEMu7ns0iDYFDNBG4gFwVo0ZD4DANAC4gV0YvUeC3pe7PWgkTUFztmVZI8Pty6zMpMBDYZPKMCoSAWHJ6uc6rx8Yfmmy9mec9t87lks83HVeeG7b+xnDFsVx2e6PXsaXXN4zLTxVd8BuasOyQL/2k1w0WDjdfe6eo5pAvv76juMrwBW2coPpMLP/c0W4yAtoOBVVHcgXqDopr2AoM2jow5YlSMPYopjjgq1D3kF+iFThtbpD8nq/Ctksg2b2WILtoIsLtWIWTthuguTcSbB8HvlyFwfto4Ok7NhIGfSjwaiXKFzTg1A1fiYM+FXClQb6hgSav+Uoc9LGgiWutQb6iCSxW4qTPFYxfGg36HQ0sdiVX4qADOaDgoo2E4BPIkMyVWolGZy5IthIXHapA+kJp0FNoAPKVOOhYDhj1qyUEn0MGJ1ai0ckdRf4YCZ3OXiDiW67CRYdLILFREHIaGQb/kqvQ6PwBwT5sFQ6quBDgsxQsKikOwlegSw2SKDcfLSCEqmpUawCx/KFUVxGMAKXKVqyAXH6j2o1u+BpV76X++eOfLN+pfqv0959ZvhFCq/RvOSOMGnWyeCih1Kjy/2KhhFO8SHEXQirzPlMIbL9NJ7waNwklxDLvMYVA91t0wq1+A1dCzj3QRWcCLxPbFLqgOS43uiN3VJ3pmjICTwyhq0oPLNGFrss9cERnujI3x+CN6d46oloMpcuzzUrTmH5BaavGakK/I1tfZ61uTD8n2/AzfBjTz8pqbazYFWs0U6ZfWNSstT7GnHOO0VszU6H/JgQ=;" vertex="1" parent="1">
          <mxGeometry x="690.25" y="284" width="43" height="43" as="geometry" />
        </mxCell>
      </root>
    </mxGraphModel>
  </diagram>
</mxfile>
